<svg width="3200" height="2000" viewBox="0 0 3200 2000" fill="none" xmlns="http://www.w3.org/2000/svg">
<g clip-path="url(#clip0_74_1317)">
<path d="M248.42 1880.15C248.42 1880.15 -138.578 1413.98 50.5086 934.064C173.789 621.237 636.189 449.825 897.214 621.237C1008.37 694.246 1364.99 623.699 1555.38 321.447C1925.46 -265.902 3216.82 90.7993 2981.72 992.586C2867.95 1428.99 3327.97 1444.79 3093.57 1881.07L248.42 1880.15Z" fill="#F6F6F6"/>
<path d="M534.873 1112.92C534.873 1112.92 495.843 1067.39 532.468 1038.46C532.468 1038.46 559.22 1022.27 581.025 1023.59C581.025 1023.59 550.119 1075.36 560.118 1080.57C570.117 1085.77 590.403 1020.31 590.403 1020.31C590.403 1020.31 651.272 1014.4 670.856 1023.76C670.856 1023.76 618.813 1066.33 629.778 1068.87C640.744 1071.42 696.953 1029.61 696.953 1029.61C696.953 1029.61 753.611 1039.26 750.585 1073.82C747.559 1108.39 728.044 1119.05 719.517 1118.13C710.991 1117.21 660.742 1098.06 659.684 1105.09C658.625 1112.12 688.807 1135.09 709.967 1136.15C709.967 1136.15 670.017 1180.21 643.471 1167.5C616.926 1154.78 614.705 1134.63 598.112 1127.07C581.52 1119.52 567.436 1119.53 574.259 1127.24C581.083 1134.95 611.08 1142.44 620.516 1159.18C629.951 1175.92 638.466 1187.21 611 1183.08C583.534 1178.95 538.889 1158.84 536.921 1135.83L534.873 1112.92Z" fill="#C8DBF4"/>
<path d="M722.799 1074.84C722.799 1074.84 568.911 1068.9 534.921 1112.91C534.921 1112.91 527.407 1135.42 504.279 1155.92L500.678 1165.75C500.678 1165.75 527.338 1137.63 536.877 1135.93C536.831 1135.93 521.919 1081.41 722.799 1074.84Z" fill="#C8DBF4"/>
<path d="M504.231 1155.93C504.231 1155.93 471.196 1180.36 468.906 1224L474.901 1224.54C474.901 1224.54 485.453 1179.4 504.519 1161.76C523.585 1144.12 504.231 1155.93 504.231 1155.93Z" fill="#C8DBF4"/>
<path d="M398.417 1055.65C398.417 1055.65 460.495 1020.89 431.521 973.701C431.521 973.701 408.347 944.727 383.516 937.283C383.516 937.283 396.76 1007.64 383.516 1009.3C370.272 1010.96 374.403 929.826 374.403 929.826C374.403 929.826 309.012 898.333 283.352 900.853C283.352 900.853 323.913 969.558 310.669 967.901C297.425 966.245 251.893 896.711 251.893 896.711C251.893 896.711 184.834 884.295 174.075 924.039C163.317 963.782 180.703 983.631 190.633 986.116C200.563 988.602 264.274 987.773 262.652 996.058C261.03 1004.34 217.949 1017.58 193.947 1010.13C193.947 1010.13 220.412 1075.52 255.196 1072.21C289.98 1068.89 300.727 1047.38 322.256 1045.74C343.784 1044.11 359.502 1049.89 348.721 1055.67C337.939 1061.46 301.544 1057.58 284.146 1072.36C266.748 1087.13 252.699 1096.24 284.975 1102.86C317.25 1109.48 375.209 1105.35 386.796 1080.52L398.417 1055.65Z" fill="#C8DBF4"/>
<path d="M204.707 936.461C204.707 936.461 378.547 992.751 398.419 1055.66C398.419 1055.66 397.59 1083.81 414.965 1116.09V1128.47C414.965 1128.47 396.762 1086.24 386.82 1080.45C386.809 1080.5 425.735 1025.87 204.707 936.461Z" fill="#C8DBF4"/>
<path d="M414.964 1116.08C414.964 1116.08 441.774 1156.79 426.47 1206.35L419.566 1204.5C419.566 1204.5 426.263 1149.92 412.236 1122.47C398.21 1095.02 414.964 1116.08 414.964 1116.08Z" fill="#C8DBF4"/>
<path d="M497.191 1007.71C497.191 1007.71 415.346 961.877 453.547 899.685C453.547 899.685 484.109 861.483 516.833 851.668C516.833 851.668 499.366 944.422 516.833 946.608C534.3 948.794 528.834 841.842 528.834 841.842C528.834 841.842 615.041 800.418 648.87 803.651C648.87 803.651 595.399 894.219 612.855 892.044C630.31 889.87 690.339 798.232 690.339 798.232C690.339 798.232 778.721 781.87 792.908 834.247C807.096 886.625 784.175 912.814 771.046 916.081C757.917 919.349 673.931 918.268 676.117 929.176C678.304 940.084 735.042 957.551 766.685 947.724C766.685 947.724 731.763 1033.93 685.932 1029.57C640.102 1025.21 625.915 996.834 597.551 994.648C569.188 992.461 548.441 1000.1 562.629 1007.74C576.816 1015.38 624.764 1010.25 647.777 1029.73C670.79 1049.21 689.2 1061.21 646.684 1069.95C604.167 1078.68 527.741 1073.24 512.472 1040.44L497.191 1007.71Z" fill="#D4E4F8"/>
<path d="M752.531 850.578C752.531 850.578 523.379 924.807 497.19 1007.71C497.19 1007.71 498.341 1044.82 475.328 1087.37V1103.74C475.328 1103.74 499.331 1048.09 512.437 1040.46C512.471 1040.45 461.175 968.428 752.531 850.578Z" fill="#D4E4F8"/>
<path d="M475.409 1087.37C475.409 1087.37 440.073 1141.03 460.22 1206.36L469.311 1203.92C469.311 1203.92 460.485 1131.97 478.976 1095.75C497.467 1059.54 475.409 1087.37 475.409 1087.37Z" fill="#D4E4F8"/>
<path d="M494.43 1348.02C536.949 1348.02 577.727 1331.12 607.793 1301.06C637.859 1270.99 654.749 1230.21 654.749 1187.7H334.121C334.121 1230.21 351.01 1270.99 381.074 1301.05C411.137 1331.12 451.912 1348.01 494.43 1348.02V1348.02Z" fill="#D4E4F8"/>
<path d="M351.678 1336.4H637.177C642.423 1336.4 647.454 1338.48 651.163 1342.19C654.873 1345.9 656.957 1350.93 656.957 1356.18V1356.18H331.898C331.898 1353.58 332.41 1351.01 333.404 1348.61C334.398 1346.21 335.855 1344.03 337.692 1342.19C339.528 1340.36 341.709 1338.9 344.109 1337.9C346.509 1336.91 349.081 1336.4 351.678 1336.4V1336.4Z" fill="#D4E4F8"/>
<path d="M658.397 1187.7H328.852V1192.61H658.397V1187.7Z" fill="#9FC1F4"/>
<path d="M1321.65 1876.81H1322.45C1328.93 1876.7 1333.95 1871.4 1333.32 1865.3L1290.07 1433.72L1252.36 1437.09L1314.42 1870.98C1314.7 1872.67 1315.59 1874.19 1316.93 1875.27C1318.26 1876.34 1319.94 1876.89 1321.65 1876.81V1876.81Z" fill="#8CB4F4"/>
<path d="M905.555 1876.81H904.761C898.283 1876.69 893.255 1871.4 893.888 1865.3L937.106 1433.73L974.813 1437.1L912.758 1870.97C912.472 1872.65 911.583 1874.17 910.257 1875.25C908.931 1876.32 907.26 1876.88 905.555 1876.81V1876.81Z" fill="#8CB4F4"/>
<path d="M1626.52 1876.81H1627.31C1633.79 1876.7 1638.82 1871.4 1638.19 1865.3L1594.99 1433.72L1557.28 1437.09L1619.34 1870.98C1619.62 1872.66 1620.51 1874.17 1621.83 1875.25C1623.15 1876.32 1624.82 1876.88 1626.52 1876.81V1876.81Z" fill="#8CB4F4"/>
<path d="M918.408 1370.95L841.706 992.147C831.857 940.863 874.35 893.962 929.535 895.228L1077.47 898.6C1102.34 899.17 1126.38 907.659 1146.09 922.833C1165.8 938.006 1180.15 959.071 1187.06 982.965L1299.27 1370.95H918.408Z" fill="#8CB4F4"/>
<path d="M964.825 1370.95L888.122 992.147C878.273 940.909 920.766 893.962 975.94 895.228L1123.88 898.6C1148.75 899.17 1172.78 907.659 1192.49 922.833C1212.2 938.006 1226.56 959.071 1233.47 982.965L1345.69 1370.95H964.825Z" fill="#8CB4F4"/>
<path d="M1525.09 1440.03L939.799 1440.03C934.129 1440.03 928.691 1437.78 924.681 1433.77C920.672 1429.76 918.42 1424.32 918.42 1418.65V1370.95H1525.09C1527.9 1370.94 1530.68 1371.5 1533.27 1372.57C1535.87 1373.64 1538.23 1375.22 1540.21 1377.2C1542.2 1379.19 1543.77 1381.55 1544.85 1384.14C1545.93 1386.74 1546.48 1389.52 1546.48 1392.33V1418.65C1546.48 1421.46 1545.93 1424.24 1544.85 1426.84C1543.77 1429.43 1542.2 1431.79 1540.21 1433.77C1538.23 1435.76 1535.87 1437.33 1533.27 1438.41C1530.68 1439.48 1527.9 1440.03 1525.09 1440.03Z" fill="#8CB4F4"/>
<path d="M1214.47 1440.03H1587.57C1597.08 1440.03 1604.79 1432.32 1604.79 1422.81V1388.17C1604.79 1378.66 1597.08 1370.95 1587.57 1370.95H1214.47C1204.96 1370.95 1197.24 1378.66 1197.24 1388.17V1422.81C1197.24 1432.32 1204.96 1440.03 1214.47 1440.03Z" fill="#8CB4F4"/>
<path d="M743.786 1366.02V1378.94C743.786 1383.46 742.313 1387.16 740.529 1387.16H268.936C267.141 1387.16 265.68 1383.46 265.68 1378.94V1366.02C265.68 1361.5 267.141 1357.8 268.936 1357.8H740.529C742.359 1357.8 743.786 1361.5 743.786 1366.02Z" fill="#9ABFE2"/>
<path d="M743.786 1366.02V1378.94C743.786 1383.46 742.44 1387.16 740.794 1387.16H366.396C364.762 1387.16 363.416 1383.46 363.416 1378.94V1366.02C363.416 1361.5 364.762 1357.8 366.396 1357.8H740.794C742.44 1357.8 743.786 1361.5 743.786 1366.02Z" fill="#BAD4F4"/>
<path d="M624.416 1387.16H289.611V1875.17H624.416V1387.16Z" fill="#C8DBF4"/>
<path d="M718.242 1387.16H383.438V1875.17H718.242V1387.16Z" fill="#DFEBFD"/>
<path d="M700.257 1848.22H401.434V1400.95H700.257V1848.22ZM404.667 1844.99H697.035V1404.17H404.667V1844.99Z" fill="#B7D3F3"/>
<path d="M698.645 1548.91H403.043V1552.14H698.645V1548.91Z" fill="#B7D3F3"/>
<path d="M698.645 1699.75H403.043V1702.97H698.645V1699.75Z" fill="#B7D3F3"/>
<path d="M581.141 1429.8H526.289C525.006 1429.79 523.775 1429.28 522.867 1428.38C521.96 1427.47 521.448 1426.24 521.445 1424.95V1424.95C521.448 1423.67 521.96 1422.44 522.867 1421.53C523.775 1420.62 525.006 1420.11 526.289 1420.11H581.141C582.423 1420.12 583.65 1420.63 584.556 1421.54C585.461 1422.44 585.971 1423.67 585.974 1424.95V1424.95C585.971 1426.24 585.461 1427.46 584.556 1428.37C583.65 1429.28 582.423 1429.79 581.141 1429.8V1429.8Z" fill="#B7D3F3"/>
<path d="M581.141 1577.29H526.289C525.007 1577.29 523.776 1576.79 522.868 1575.88C521.96 1574.97 521.448 1573.74 521.445 1572.46C521.448 1571.18 521.96 1569.95 522.867 1569.04C523.775 1568.13 525.006 1567.62 526.289 1567.62H581.141C582.424 1567.62 583.653 1568.13 584.559 1569.04C585.465 1569.95 585.974 1571.18 585.974 1572.46V1572.46C585.971 1573.74 585.461 1574.97 584.555 1575.88C583.649 1576.78 582.422 1577.29 581.141 1577.29V1577.29Z" fill="#B7D3F3"/>
<path d="M581.141 1731.07H526.289C525.006 1731.06 523.775 1730.55 522.867 1729.65C521.96 1728.74 521.448 1727.51 521.445 1726.22V1726.22C521.448 1724.94 521.96 1723.71 522.868 1722.81C523.776 1721.9 525.007 1721.39 526.289 1721.39H581.141C582.422 1721.39 583.649 1721.9 584.555 1722.81C585.461 1723.72 585.971 1724.94 585.974 1726.22V1726.22C585.974 1727.51 585.465 1728.74 584.559 1729.64C583.653 1730.55 582.424 1731.06 581.141 1731.07V1731.07Z" fill="#B7D3F3"/>
<path d="M2058.14 269.477H1845.91C1836.13 269.477 1828.2 277.405 1828.2 287.185V492.024C1828.2 501.804 1836.13 509.732 1845.91 509.732H2058.14C2067.92 509.732 2075.85 501.804 2075.85 492.024V287.185C2075.85 277.405 2067.92 269.477 2058.14 269.477Z" fill="#C0D8FB"/>
<path d="M2048.95 279.891H1855.12C1846.18 279.891 1838.94 287.134 1838.94 296.069V483.153C1838.94 492.088 1846.18 499.331 1855.12 499.331H2048.95C2057.89 499.331 2065.13 492.088 2065.13 483.153V296.069C2065.13 287.134 2057.89 279.891 2048.95 279.891Z" fill="#DFEBFD"/>
<path d="M1947.02 225.943C1949.86 225.943 1952.16 223.646 1952.16 220.812C1952.16 217.977 1949.86 215.68 1947.02 215.68C1944.19 215.68 1941.89 217.977 1941.89 220.812C1941.89 223.646 1944.19 225.943 1947.02 225.943Z" fill="#B7D3F3"/>
<path d="M1983.29 228.071C1983.79 227.185 1984.53 226.465 1985.44 226.002C1986.34 225.539 1987.36 225.355 1988.37 225.472C1989.38 225.588 1990.33 226.001 1991.1 226.658C1991.87 227.315 1992.43 228.187 1992.71 229.163C1992.99 230.139 1992.97 231.175 1992.66 232.141C1992.35 233.107 1991.76 233.959 1990.97 234.59C1990.17 235.22 1989.21 235.601 1988.2 235.684C1987.18 235.767 1986.17 235.548 1985.28 235.056C1984.69 234.728 1984.18 234.287 1983.76 233.759C1983.34 233.231 1983.03 232.625 1982.84 231.976C1982.66 231.327 1982.6 230.649 1982.68 229.979C1982.76 229.308 1982.97 228.66 1983.29 228.071V228.071Z" fill="#B7D3F3"/>
<path d="M2023.76 337.243C2024.61 336.692 2025.61 336.407 2026.62 336.423C2027.64 336.438 2028.62 336.755 2029.46 337.333C2030.29 337.91 2030.94 338.722 2031.31 339.666C2031.69 340.611 2031.77 341.644 2031.56 342.637C2031.34 343.629 2030.84 344.536 2030.11 345.242C2029.38 345.948 2028.46 346.422 2027.46 346.603C2026.46 346.784 2025.43 346.665 2024.5 346.261C2023.57 345.857 2022.77 345.185 2022.23 344.331C2021.86 343.766 2021.61 343.133 2021.49 342.471C2021.37 341.808 2021.38 341.128 2021.52 340.47C2021.66 339.811 2021.93 339.187 2022.32 338.634C2022.7 338.08 2023.19 337.608 2023.76 337.243V337.243Z" fill="#B7D3F3"/>
<path d="M2041.33 380.859C2042.34 380.859 2043.33 381.161 2044.18 381.725C2045.02 382.289 2045.68 383.092 2046.07 384.03C2046.46 384.968 2046.56 386.001 2046.36 386.997C2046.16 387.993 2045.67 388.907 2044.95 389.624C2044.23 390.341 2043.32 390.829 2042.32 391.026C2041.32 391.223 2040.29 391.119 2039.35 390.729C2038.42 390.339 2037.62 389.679 2037.05 388.834C2036.49 387.989 2036.19 386.995 2036.19 385.98C2036.19 385.306 2036.33 384.64 2036.58 384.018C2036.84 383.396 2037.22 382.831 2037.7 382.355C2038.17 381.879 2038.74 381.503 2039.36 381.246C2039.98 380.989 2040.65 380.858 2041.33 380.859V380.859Z" fill="#B7D3F3"/>
<path d="M2032.35 431.465C2033.07 432.181 2033.55 433.094 2033.75 434.086C2033.95 435.079 2033.84 436.108 2033.46 437.043C2033.07 437.978 2032.41 438.777 2031.57 439.34C2030.73 439.902 2029.74 440.202 2028.73 440.202C2027.71 440.202 2026.72 439.902 2025.88 439.34C2025.04 438.777 2024.38 437.978 2024 437.043C2023.61 436.108 2023.51 435.079 2023.7 434.086C2023.9 433.094 2024.39 432.181 2025.1 431.465C2025.58 430.988 2026.14 430.61 2026.76 430.352C2027.39 430.094 2028.05 429.961 2028.73 429.961C2029.4 429.961 2030.07 430.094 2030.69 430.352C2031.31 430.61 2031.87 430.988 2032.35 431.465V431.465Z" fill="#B7D3F3"/>
<path d="M2000.14 463.759C2000.86 464.477 2001.35 465.392 2001.55 466.387C2001.74 467.382 2001.64 468.414 2001.25 469.352C2000.87 470.289 2000.21 471.09 1999.36 471.654C1998.52 472.218 1997.53 472.519 1996.51 472.519C1995.5 472.519 1994.51 472.218 1993.66 471.654C1992.82 471.09 1992.16 470.289 1991.77 469.352C1991.38 468.414 1991.28 467.382 1991.48 466.387C1991.68 465.392 1992.17 464.477 1992.88 463.759C1993.36 463.281 1993.92 462.901 1994.55 462.642C1995.17 462.383 1995.84 462.25 1996.51 462.25C1997.19 462.25 1997.86 462.383 1998.48 462.642C1999.1 462.901 1999.67 463.281 2000.14 463.759Z" fill="#B7D3F3"/>
<path d="M1946.9 480.398C1946.9 479.382 1947.21 478.389 1947.77 477.545C1948.33 476.701 1949.14 476.043 1950.08 475.655C1951.01 475.267 1952.05 475.166 1953.04 475.365C1954.04 475.564 1954.95 476.054 1955.67 476.773C1956.39 477.492 1956.87 478.407 1957.07 479.403C1957.27 480.4 1957.16 481.432 1956.77 482.369C1956.38 483.307 1955.72 484.108 1954.88 484.67C1954.03 485.233 1953.04 485.532 1952.02 485.529C1951.35 485.529 1950.68 485.397 1950.06 485.139C1949.44 484.881 1948.88 484.502 1948.4 484.026C1947.92 483.549 1947.55 482.983 1947.29 482.361C1947.03 481.738 1946.9 481.071 1946.9 480.398V480.398Z" fill="#B7D3F3"/>
<path d="M1910.61 228.071C1910.11 227.185 1909.37 226.465 1908.46 226.002C1907.56 225.539 1906.54 225.355 1905.53 225.472C1904.53 225.588 1903.57 226.001 1902.8 226.658C1902.03 227.315 1901.47 228.187 1901.19 229.163C1900.91 230.139 1900.93 231.175 1901.24 232.141C1901.55 233.107 1902.14 233.959 1902.93 234.59C1903.73 235.22 1904.69 235.601 1905.7 235.684C1906.72 235.767 1907.73 235.548 1908.62 235.056C1909.8 234.392 1910.68 233.284 1911.05 231.975C1911.43 230.666 1911.27 229.262 1910.61 228.071V228.071Z" fill="#B7D3F3"/>
<path d="M1880.14 337.243C1879.29 336.692 1878.29 336.407 1877.28 336.423C1876.26 336.438 1875.28 336.755 1874.44 337.333C1873.6 337.91 1872.96 338.722 1872.59 339.666C1872.21 340.611 1872.13 341.644 1872.34 342.637C1872.56 343.629 1873.06 344.536 1873.79 345.242C1874.52 345.948 1875.44 346.422 1876.44 346.603C1877.44 346.784 1878.47 346.665 1879.4 346.261C1880.33 345.857 1881.12 345.185 1881.67 344.331C1882.41 343.188 1882.66 341.8 1882.37 340.471C1882.09 339.142 1881.29 337.981 1880.14 337.243V337.243Z" fill="#B7D3F3"/>
<path d="M1862.57 380.859C1861.56 380.859 1860.57 381.161 1859.72 381.725C1858.88 382.289 1858.22 383.092 1857.83 384.03C1857.44 384.968 1857.34 386.001 1857.54 386.997C1857.74 387.993 1858.23 388.907 1858.95 389.624C1859.67 390.341 1860.58 390.829 1861.58 391.026C1862.58 391.223 1863.61 391.119 1864.55 390.729C1865.48 390.339 1866.28 389.679 1866.85 388.834C1867.41 387.989 1867.71 386.995 1867.71 385.98C1867.7 384.621 1867.16 383.318 1866.2 382.358C1865.24 381.398 1863.93 380.859 1862.57 380.859V380.859Z" fill="#B7D3F3"/>
<path d="M1871.55 431.454C1870.83 432.17 1870.35 433.083 1870.15 434.076C1869.95 435.069 1870.06 436.098 1870.44 437.033C1870.83 437.967 1871.49 438.767 1872.33 439.329C1873.17 439.891 1874.16 440.191 1875.17 440.191C1876.19 440.191 1877.17 439.891 1878.02 439.329C1878.86 438.767 1879.51 437.967 1879.9 437.033C1880.29 436.098 1880.39 435.069 1880.2 434.076C1880 433.083 1879.51 432.17 1878.8 431.454C1878.32 430.976 1877.76 430.596 1877.14 430.337C1876.51 430.079 1875.85 429.945 1875.17 429.945C1874.5 429.945 1873.83 430.079 1873.21 430.337C1872.59 430.596 1872.02 430.976 1871.55 431.454V431.454Z" fill="#B7D3F3"/>
<path d="M1907.38 472.514C1910.21 472.514 1912.51 470.216 1912.51 467.382C1912.51 464.548 1910.21 462.25 1907.38 462.25C1904.54 462.25 1902.25 464.548 1902.25 467.382C1902.25 470.216 1904.54 472.514 1907.38 472.514Z" fill="#B7D3F3"/>
<path d="M1950.64 385.968C1950.64 384.953 1950.95 383.961 1951.51 383.117C1952.07 382.273 1952.87 381.615 1953.81 381.227C1954.75 380.838 1955.78 380.737 1956.78 380.935C1957.77 381.133 1958.69 381.621 1959.41 382.339C1960.12 383.057 1960.61 383.971 1960.81 384.967C1961.01 385.962 1960.91 386.994 1960.52 387.932C1960.13 388.869 1959.47 389.671 1958.63 390.235C1957.78 390.799 1956.79 391.1 1955.78 391.1C1954.42 391.1 1953.11 390.559 1952.15 389.597C1951.19 388.634 1950.64 387.329 1950.64 385.968V385.968Z" fill="#B7D3F3"/>
<path d="M1956.48 321.898H1955.07V385.99H1956.48V321.898Z" fill="#B7D3F3"/>
<path d="M1987.84 357.626L1953.86 384.297L1956.45 387.601L1990.43 360.93L1987.84 357.626Z" fill="#B7D3F3"/>
<path d="M1428.29 1291.67C1396.63 1346.78 1356.8 1368.05 1356.8 1368.05H1191.11C1191.11 1368.05 1452.45 1249.63 1428.29 1291.67Z" fill="#233862"/>
<path d="M1632.64 1839.17C1630.85 1856.56 1655.03 1861.03 1683.07 1862.75C1711.11 1864.46 1702.63 1870.1 1740.95 1877.48C1779.27 1884.85 1794.85 1874.5 1797.69 1869.33C1800.21 1864.73 1782.41 1857.35 1763.44 1849C1761.06 1847.95 1758.67 1846.88 1756.29 1845.8C1734.94 1836.15 1723.11 1816.79 1706.59 1798.78C1690.94 1781.72 1676.49 1727.44 1676.49 1727.44L1624.35 1715.72C1624.35 1715.72 1638.51 1764.54 1643.37 1785.37C1646.24 1797.62 1641.67 1811.23 1637.62 1821.59C1635.47 1827.29 1633.27 1833.05 1632.64 1839.17Z" fill="#FFB27D"/>
<path d="M1683.07 1862.75C1711.11 1864.44 1702.63 1870.1 1740.95 1877.48C1779.26 1884.85 1794.84 1874.5 1797.69 1869.33C1800.21 1864.73 1782.41 1857.35 1763.44 1849L1763.14 1849.32C1744.09 1854.6 1723.96 1854.62 1704.9 1849.39C1679.58 1842.21 1655.11 1826.75 1637.64 1821.65C1635.47 1827.29 1633.27 1833.05 1632.64 1839.17C1630.85 1856.56 1655.03 1861.05 1683.07 1862.75Z" fill="#0F2549"/>
<path d="M1553.67 1235.23C1525.62 1215.54 1340.06 1180.42 1245.36 1170.26L1140.65 1079.36C1140.65 1079.36 1051.56 1211.32 1050.9 1312.26C1050.58 1359.32 1072.26 1364.04 1072.26 1364.04C1072.26 1364.04 1407.78 1366.54 1422.48 1368.05C1446.55 1370.53 1478.3 1430.5 1486.24 1485.12C1494.18 1539.75 1634.11 1761.91 1634.11 1761.91C1634.11 1761.91 1663.29 1771.27 1676.78 1770.47C1691.29 1769.62 1698.01 1764.72 1698.01 1764.72C1698.01 1764.72 1616.92 1279.65 1553.67 1235.23Z" fill="#233862"/>
<path d="M1545.86 1839.17C1544.07 1856.56 1568.25 1861.03 1596.29 1862.75C1624.33 1864.46 1615.79 1870.1 1654.17 1877.48C1692.54 1884.85 1708.06 1874.5 1710.89 1869.33C1713.43 1864.73 1695.63 1857.35 1676.66 1849C1674.28 1847.95 1671.89 1846.88 1669.51 1845.8C1648.16 1836.15 1636.33 1816.79 1619.81 1798.78C1604.16 1781.72 1589.71 1727.44 1589.71 1727.44L1537.57 1715.72C1537.57 1715.72 1551.73 1764.54 1556.59 1785.37C1559.46 1797.62 1554.89 1811.23 1550.84 1821.59C1548.68 1827.29 1546.49 1833.05 1545.86 1839.17Z" fill="#FFB27D"/>
<path d="M1596.29 1862.75C1624.33 1864.44 1615.79 1870.1 1654.17 1877.48C1692.54 1884.85 1708.06 1874.5 1710.89 1869.33C1713.43 1864.73 1695.62 1857.35 1676.66 1849L1676.36 1849.32C1657.31 1854.6 1637.18 1854.62 1618.12 1849.39C1592.8 1842.21 1568.33 1826.75 1550.86 1821.65C1548.68 1827.29 1546.49 1833.05 1545.86 1839.17C1544.07 1856.56 1568.25 1861.05 1596.29 1862.75Z" fill="#233862"/>
<path d="M1466.12 1235.23C1441.75 1218.12 1368.45 1204.85 1287.55 1194.95C1276.62 1193.62 1266.35 1189 1258.1 1181.7C1249.86 1174.41 1244.01 1164.79 1241.35 1154.1V1154.1L1053.16 1079.31C1053.16 1079.31 964.077 1211.27 963.41 1312.22C963.088 1359.28 984.766 1363.99 984.766 1363.99C984.766 1363.99 1320.28 1366.49 1334.99 1368C1359.06 1370.48 1390.82 1430.46 1398.75 1485.08C1406.67 1539.7 1546.59 1761.85 1546.59 1761.85C1546.59 1761.85 1575.77 1771.21 1589.26 1770.42C1603.78 1769.56 1610.49 1764.66 1610.49 1764.66C1610.49 1764.66 1529.4 1279.65 1466.12 1235.23Z" fill="#2B478B"/>
<path d="M1214.3 531.184C1188.43 517.595 1149.09 515.765 1142.69 514.902C1066.2 504.627 1020.16 615.78 1017.44 649.459C1012.46 711.594 979.623 721.007 933.447 759.922C840.762 837.878 867.941 928.469 918.627 962.137C949.027 982.331 1002.62 962.137 1002.62 962.137C1003.38 962.666 1149.22 880.613 1221.1 841.031C1328.82 825.67 1280.2 565.796 1214.3 531.184Z" fill="#233862"/>
<path d="M1198.34 802.755C1198.68 802.927 1164.35 818.542 1139.57 810.349C1116.26 802.674 1095.73 767.58 1096.06 767.522C1106.18 766.061 1116.46 756.073 1119.33 696.93L1123.81 698.08L1199.17 717.101C1199.17 717.101 1196.19 740.965 1194.95 763.529C1193.9 782.48 1194.11 800.534 1198.34 802.755Z" fill="#FFB27D"/>
<path d="M1199.17 717.095C1199.17 717.095 1199.17 722.008 1196.35 744.204C1153.77 733.457 1134.96 719.338 1121.71 703.172L1199.17 717.095Z" fill="#ED975D"/>
<path d="M1215.28 720.093C1215.28 720.093 1115.65 736.317 1106.52 674.067C1097.38 611.817 1078.35 572.085 1141.57 559.094C1204.78 546.103 1220.66 568.023 1228.76 588.044C1236.86 608.066 1240.89 714.224 1215.28 720.093Z" fill="#FFB27D"/>
<path d="M1215.27 556.59C1215.27 556.59 1170.04 627.999 1129.65 644.914C1089.27 661.829 1069.43 653.233 1069.43 653.233C1081.54 633.301 1089.43 611.089 1092.59 587.98C1093.26 582.565 1095.37 577.427 1098.69 573.1C1102.02 568.772 1106.44 565.412 1111.5 563.368C1140.48 551.723 1196.58 533.416 1215.27 556.59Z" fill="#233862"/>
<path d="M1175.58 563.501C1175.58 563.501 1202.04 577.09 1213.01 589.828C1223.55 602.128 1235.72 635.486 1234.87 650.467C1234.87 650.467 1247.95 578.678 1220.71 553.997C1191.79 527.831 1175.58 563.501 1175.58 563.501Z" fill="#233862"/>
<path d="M1278.03 954.72C1275.02 1157.23 1277.2 1114.89 1255.02 1134.11C1249.68 1138.71 1234.69 1141.49 1214.93 1142.79C1152.8 1146.91 1043.7 1136.69 1039.55 1125.21C1025.22 1085.51 1035.34 1073.18 1023.44 1012.39C1022.19 1005.92 1020.64 998.928 1018.84 991.31C1008.87 949.565 999.184 935.354 1034.52 868.295C1066.58 807.54 1104.27 758.177 1107.26 759.961C1191.83 810.164 1194.71 768.084 1194.71 768.084C1194.71 768.084 1279.52 855.925 1278.03 954.72Z" fill="white"/>
<path d="M1194.71 768.055C1194.71 768.055 1281.27 782.725 1291.48 820.191C1301.7 857.656 1361.82 1077.94 1361.82 1077.94C1361.82 1077.94 1317.59 1085.89 1297.16 1065.45C1276.72 1045.02 1226.05 875.859 1226.05 875.859L1194.71 768.055Z" fill="white"/>
<path d="M1214.97 1142.76C1152.83 1146.88 1043.74 1136.66 1039.58 1125.18C1025.26 1085.48 1035.37 1073.15 1023.47 1012.36L1053.39 928.039C1053.39 928.039 1048.44 1021.94 1076.14 1046.64C1103.84 1071.33 1189.52 1094.32 1202.99 1114.95C1209.45 1124.86 1213.72 1134.79 1214.97 1142.76Z" fill="#EBF3FF"/>
<path d="M1143.83 1103.26C1143.83 1103.26 1205.08 1089.63 1214.97 1095.06C1224.85 1100.49 1249.01 1120.29 1252.03 1127.19C1255.04 1134.08 1230.03 1121.95 1221.89 1119.76C1216.61 1118.35 1202.73 1123.22 1195.86 1125.52C1166.96 1135.15 1149.24 1130.19 1149.24 1130.19L1143.83 1103.26Z" fill="#FFB27D"/>
<path d="M1107.25 759.922C1107.25 759.922 1020.56 764.985 992.085 804.694C952.008 860.604 872.498 1098.85 918.064 1130.61C969.383 1166.4 1151.65 1139.97 1151.65 1139.97C1151.65 1139.97 1157.71 1111.63 1149.26 1097.91C1140.82 1084.2 1003.72 1062.06 997.378 1055.73C991.038 1049.4 1076.47 932.324 1076.47 913.338C1076.47 894.352 1107.25 759.922 1107.25 759.922Z" fill="white"/>
<path d="M1217.93 1112.11C1217.93 1112.11 1230.76 1128.66 1234.97 1130.63C1239.19 1132.61 1241.88 1132.12 1241.88 1132.12L1233.23 1116.55L1217.93 1112.11Z" fill="#FFB27D"/>
<path d="M1214.96 1095.09L1252.28 1113.22C1252.28 1113.22 1250.69 1115.82 1246.1 1115.6C1241.51 1115.38 1229.92 1111.16 1229.92 1111.16L1214.96 1095.09Z" fill="#FFB27D"/>
<path d="M1352.43 1138.01H1179.12C1179.12 1134.35 1180.58 1130.84 1183.17 1128.25C1185.76 1125.66 1189.27 1124.2 1192.93 1124.2H1352.43V1138.01Z" fill="#6A49A4"/>
<path d="M1351.94 949.281H1619.88L1555.6 1138.02H1285.93L1351.94 949.281Z" fill="#4D288E"/>
<path d="M1623.82 949.258L1559.55 1138.01H1289.87L1355.87 949.258H1623.82Z" fill="#6A49A4"/>
<path d="M1479.36 1041.9C1477.7 1049.12 1470.5 1054.96 1463.25 1054.96C1456 1054.96 1451.55 1049.12 1453.22 1041.9C1454.89 1034.69 1462.08 1028.84 1469.33 1028.84C1476.58 1028.84 1481.08 1034.69 1479.36 1041.9Z" fill="white"/>
<path d="M2293.45 1138.02H1119.22C1114.28 1138.02 1110.28 1142.02 1110.28 1146.96V1171.53C1110.28 1176.47 1114.28 1180.47 1119.22 1180.47H2293.45C2298.38 1180.47 2302.39 1176.47 2302.39 1171.53V1146.96C2302.39 1142.02 2298.38 1138.02 2293.45 1138.02Z" fill="#182D4F"/>
<path d="M2322.2 1879.98H2322.71C2324.12 1879.82 2325.49 1879.39 2326.74 1878.7C2327.98 1878.01 2329.08 1877.08 2329.96 1875.96C2330.85 1874.85 2331.5 1873.57 2331.89 1872.2C2332.28 1870.83 2332.39 1869.39 2332.22 1867.98L2227.58 1159.69L2189.28 1160.84L2312.4 1872.97C2312.84 1875.17 2314.09 1877.11 2315.91 1878.42C2317.73 1879.72 2319.98 1880.28 2322.2 1879.98V1879.98Z" fill="#182D4F"/>
<path d="M1079.9 1879.98H1079.4C1077.98 1879.82 1076.61 1879.39 1075.37 1878.7C1074.12 1878.01 1073.03 1877.08 1072.14 1875.96C1071.26 1874.85 1070.6 1873.57 1070.21 1872.2C1069.83 1870.83 1069.71 1869.39 1069.88 1867.98L1174.52 1159.69L1212.83 1160.84L1089.71 1872.97C1089.27 1875.17 1088.02 1877.12 1086.19 1878.42C1084.37 1879.72 1082.12 1880.28 1079.9 1879.98V1879.98Z" fill="#182D4F"/>
<path d="M1322.14 1879.98H1321.63C1320.22 1879.82 1318.85 1879.39 1317.6 1878.7C1316.36 1878.01 1315.26 1877.08 1314.38 1875.96C1313.49 1874.85 1312.84 1873.57 1312.45 1872.2C1312.07 1870.83 1311.96 1869.39 1312.13 1867.98L1416.75 1159.69L1455.07 1160.84L1331.95 1872.97C1331.51 1875.17 1330.25 1877.12 1328.43 1878.42C1326.61 1879.72 1324.36 1880.28 1322.14 1879.98V1879.98Z" fill="#182D4F"/>
<path d="M1939.46 1879.4H2147.11C2157.09 1867.22 2153.41 1822.25 2151.9 1807.57C2151.58 1804.61 2151.37 1802.89 2151.37 1802.89C2151.37 1802.89 2080.47 1746.17 2070.72 1789.6C2070.43 1790.95 2070.07 1792.29 2069.68 1793.6C2057.41 1834.22 2002.37 1852.69 1970.58 1857.82C1949.92 1861.18 1942.29 1871.91 1939.46 1879.4Z" fill="#233862"/>
<path d="M2506.04 1204.7C2498.54 1204.7 2150.36 1270.07 2092.77 1341.37C2064.01 1377.04 2059.71 1788.29 2059.71 1788.29C2059.71 1788.29 2095.32 1832.42 2172.19 1806.79C2172.19 1806.79 2228.57 1525.39 2224.4 1440.03C2223.25 1416.43 2462.28 1436.58 2506.04 1425.29C2549.8 1414.01 2656.69 1318.79 2633.13 1272.43C2609.56 1226.07 2506.04 1204.7 2506.04 1204.7Z" fill="#233862"/>
<path d="M2094.26 1103.98C2094.26 1103.98 2024.07 1104.93 2007.42 1112.04C1990.77 1119.15 1957.11 1135.49 1966.13 1138C1975.15 1140.51 2018.18 1136.97 2027.47 1138.39C2036.77 1139.8 2048.19 1138 2053.94 1138H2086.16L2094.26 1103.98Z" fill="#FFB27D"/>
<path d="M2012.15 935.438C2012.15 935.438 1988.2 918.327 1964.97 915.002C1951.71 913.104 1938.81 910.745 1931.02 907.995C1909.57 900.435 1866.59 861.842 1869.89 857.366C1880.25 842.856 1930.41 873.567 1939.16 870.265C1947.9 866.962 1922.35 848.794 1931.24 842.408C1935.85 839.071 1946.74 855.801 1955.63 857.481C1967.64 859.782 1977.04 876.72 1980.65 877.606C1987.69 879.332 2018.52 902.264 2018.52 902.264L2012.15 935.438Z" fill="#FFB27D"/>
<path d="M2471.36 735.625C2471.36 735.625 2417.9 752.194 2365.22 897.245C2312.55 1042.3 2292.54 1050.13 2273.39 1055.83C2254.24 1061.52 2086.18 1094.95 2086.18 1094.95V1138H2345.14C2345.14 1138 2442.25 1045.62 2471.36 983.486C2500.47 921.351 2471.36 735.625 2471.36 735.625Z" fill="#613CA2"/>
<path d="M1847.69 1879.4H2055.33C2065.32 1867.22 2061.63 1822.25 2060.13 1807.57C2059.82 1804.61 2059.61 1802.89 2059.61 1802.89C2059.61 1802.89 1988.69 1746.17 1978.96 1789.6C1978.66 1790.95 1978.3 1792.29 1977.91 1793.6C1965.63 1834.22 1910.6 1852.69 1878.82 1857.82C1858.15 1861.18 1850.51 1871.91 1847.69 1879.4Z" fill="#1B3051"/>
<path d="M2403.44 1204.7C2395.93 1204.7 2047.76 1270.07 1990.17 1341.37C1961.4 1377.04 1957.11 1788.29 1957.11 1788.29C1957.11 1788.29 1992.71 1832.42 2069.59 1806.79C2069.59 1806.79 2125.97 1525.39 2121.79 1440.03C2120.64 1416.43 2359.68 1436.58 2403.44 1425.29C2447.2 1414.01 2554.09 1318.79 2530.53 1272.43C2506.96 1226.07 2403.44 1204.7 2403.44 1204.7Z" fill="#2B478B"/>
<path d="M2425.23 781.596C2450.27 779.525 2476.54 772.851 2499.23 765.487C2527.6 756.282 2550.48 742.819 2535.74 716.895C2522.15 692.996 2500.17 639.594 2501.66 595.375L2448.86 637.949L2413 666.853C2413 666.853 2413.15 683.883 2417.06 713.742C2417.78 719.185 2418.61 725.065 2419.6 731.336C2419.99 733.82 2419.64 736.364 2418.6 738.651C2417.55 740.937 2415.85 742.863 2413.71 744.188C2413.43 744.35 2413.17 744.522 2412.91 744.695C2395.08 755.856 2404.24 783.276 2425.23 781.596Z" fill="#FFB27D"/>
<path d="M2413 659.773C2413 659.773 2411.16 665.964 2414.31 688.804C2446.29 683.592 2476.18 658.093 2476.18 658.093C2459.9 653.617 2453.97 636.035 2441.86 637.669L2413 659.773Z" fill="#ED975D"/>
<path d="M2383.43 664.988C2383.43 664.988 2506.41 685.423 2517.95 608.606C2529.49 531.789 2553.15 482.737 2475.11 466.443C2397.07 450.15 2377.39 477.156 2367.3 501.849C2357.2 526.542 2351.73 657.693 2383.43 664.988Z" fill="#FFB27D"/>
<path d="M2349.21 467.899C2343.93 486.39 2358.06 508.908 2381.78 516.33C2417 527.33 2409.23 570.537 2425.07 569.939C2440.91 569.34 2447.31 545.108 2461.46 564.485C2473.55 581.008 2451.42 600.592 2452.94 609.659C2455.55 625.216 2479.92 657.043 2501.88 655.443C2523.83 653.844 2564.93 549.492 2556.7 517.204C2548.48 484.917 2515.61 450.869 2484.51 446.175C2453.41 441.48 2410.19 454.92 2400.22 454.92C2390.24 454.92 2352.12 457.911 2349.21 467.899Z" fill="#2B478B"/>
<path d="M2634.77 842.199C2616.99 770.651 2567.86 695.572 2534.67 695.641C2478.06 695.744 2396.68 710.68 2363.83 791.731C2339.66 851.427 2307.35 1194.82 2343.83 1219.23C2427.22 1275.06 2620.52 1389.03 2654.85 1272.81C2686.3 1166.33 2665.62 966.365 2634.77 842.199Z" fill="#6A49A4"/>
<path d="M2497.28 770.991C2493.53 761.218 2487.54 752.46 2479.8 745.417C2472.05 738.374 2462.77 733.243 2452.68 730.434C2442.6 727.626 2432 727.218 2421.73 729.243C2411.46 731.269 2401.8 735.671 2393.54 742.098C2374.32 757.057 2350.8 778.332 2322.38 808.594C2216.74 921.082 2195.27 920.392 2175.43 918.067C2155.6 915.743 1987.96 880.165 1987.96 880.165C1982.28 884.65 1977.63 890.3 1974.32 896.734C1967.58 910.404 1970.98 919.747 1970.98 919.747C1964.41 915.513 2030.39 960.998 2063.25 979.132C2106.61 1003.08 2171.97 1025.54 2198.01 1034.06C2205.38 1036.48 2213.35 1036.36 2220.64 1033.72C2259.28 1019.8 2389.04 969.052 2494.66 880.993C2522.48 857.75 2512.25 809.941 2497.28 770.991Z" fill="#6A49A4"/>
<path d="M2540.34 696.334L2527.53 667.453C2527.53 667.453 2412.81 676.808 2393.53 742.107C2393.54 742.107 2482.45 697.727 2540.34 696.334Z" fill="white"/>
<path d="M2818.86 1876.81H2819.66C2826.14 1876.69 2831.17 1871.4 2830.52 1865.3L2787.31 1433.73L2749.61 1437.1L2811.65 1870.98C2811.94 1872.67 2812.83 1874.18 2814.16 1875.25C2815.49 1876.32 2817.16 1876.88 2818.86 1876.81V1876.81Z" fill="#8CB4F4"/>
<path d="M2596.44 1876.81H2597.23C2603.71 1876.69 2608.74 1871.4 2608.1 1865.3L2564.88 1433.73L2527.18 1437.1L2589.23 1870.98C2589.52 1872.67 2590.41 1874.18 2591.73 1875.26C2593.06 1876.33 2594.73 1876.88 2596.44 1876.81V1876.81Z" fill="#8CB4F4"/>
<path d="M2178.86 1876.81H2178.07C2171.6 1876.69 2166.56 1871.4 2167.21 1865.3L2210.41 1433.73L2248.12 1437.1L2186.08 1870.97C2185.79 1872.66 2184.9 1874.18 2183.57 1875.25C2182.24 1876.33 2180.57 1876.88 2178.86 1876.81Z" fill="#73A2E5"/>
<path d="M2806.62 1372.59L2847.63 1012.13C2853 960.182 2835.63 909.324 2760.67 905.388L2628.8 897.334C2550.64 894.112 2515.35 959.158 2505.45 1009.23L2427.21 1405.47L2806.62 1372.59Z" fill="#8CB4F4"/>
<path d="M2199.33 1370.95H2806V1418.66C2806 1424.33 2803.75 1429.77 2799.74 1433.78C2795.73 1437.79 2790.29 1440.04 2784.62 1440.04H2199.33C2193.66 1440.04 2188.23 1437.79 2184.22 1433.78C2180.21 1429.77 2177.96 1424.33 2177.96 1418.66V1392.33C2177.96 1386.66 2180.21 1381.22 2184.22 1377.21C2188.23 1373.21 2193.66 1370.95 2199.33 1370.95Z" fill="#73A2E5"/>
<path d="M2443.8 1370.95H2805.99V1423.43C2805.99 1427.84 2804.24 1432.06 2801.13 1435.17C2798.01 1438.29 2793.79 1440.04 2789.39 1440.04H2443.8C2439.4 1440.04 2435.17 1438.29 2432.06 1435.17C2428.95 1432.06 2427.2 1427.84 2427.2 1423.43V1387.56C2427.2 1383.15 2428.95 1378.93 2432.06 1375.82C2435.17 1372.7 2439.4 1370.95 2443.8 1370.95V1370.95Z" fill="#8CB4F4"/>
</g>
<defs>
<clipPath id="clip0_74_1317">
<rect width="3200" height="2000" fill="white"/>
</clipPath>
</defs>
</svg>
